<svg width="600" height="600" viewBox="0 0 600 600" fill="none" xmlns="http://www.w3.org/2000/svg">
<path d="M500 200C500 310.457 410.457 400 300 400C189.543 400 100 310.457 100 200C100 89.5431 189.543 0 300 0C410.457 0 500 89.5431 500 200Z" fill="#FA9E5B" fill-opacity="0.4"/>
<path d="M400 400C400 510.457 310.457 600 200 600C89.5431 600 0 510.457 0 400C0 289.543 89.5431 200 200 200C310.457 200 400 289.543 400 400Z" fill="#B5F563" fill-opacity="0.4"/>
<path d="M600 400C600 510.457 510.457 600 400 600C289.543 600 200 510.457 200 400C200 289.543 289.543 200 400 200C510.457 200 600 289.543 600 400Z" fill="#E699D0" fill-opacity="0.4"/>
<path d="M516.891 425.8C518.957 425.8 520.577 426.373 521.751 427.52C522.937 428.653 523.531 430.28 523.531 432.4C523.531 434.52 522.937 436.153 521.751 437.3C520.577 438.433 518.957 439 516.891 439H512.631V425.8H516.891ZM517.051 437.5C518.557 437.5 519.731 437.053 520.571 436.16C521.424 435.253 521.851 434 521.851 432.4C521.851 430.8 521.424 429.553 520.571 428.66C519.731 427.753 518.557 427.3 517.051 427.3H514.231V437.5H517.051Z" fill="black"/>
<path d="M532.585 432.54C532.585 431.793 532.385 431.22 531.985 430.82C531.585 430.407 531.018 430.2 530.285 430.2C529.591 430.2 529.005 430.353 528.525 430.66C528.045 430.953 527.691 431.433 527.465 432.1L526.165 431.3C526.431 430.553 526.925 429.953 527.645 429.5C528.365 429.033 529.258 428.8 530.325 428.8C531.045 428.8 531.698 428.927 532.285 429.18C532.871 429.42 533.331 429.793 533.665 430.3C534.011 430.793 534.185 431.433 534.185 432.22V437.06C534.185 437.54 534.438 437.78 534.945 437.78C535.198 437.78 535.445 437.747 535.685 437.68L535.605 438.94C535.338 439.073 534.991 439.14 534.565 439.14C534.178 439.14 533.831 439.067 533.525 438.92C533.218 438.773 532.978 438.553 532.805 438.26C532.631 437.953 532.545 437.573 532.545 437.12V436.92L532.945 436.98C532.785 437.5 532.511 437.927 532.125 438.26C531.738 438.58 531.305 438.82 530.825 438.98C530.345 439.127 529.871 439.2 529.405 439.2C528.818 439.2 528.271 439.1 527.765 438.9C527.258 438.7 526.851 438.4 526.545 438C526.251 437.587 526.105 437.08 526.105 436.48C526.105 435.733 526.351 435.12 526.845 434.64C527.351 434.147 528.051 433.813 528.945 433.64L532.905 432.86V434.18L529.685 434.84C529.031 434.973 528.545 435.16 528.225 435.4C527.905 435.64 527.745 435.973 527.745 436.4C527.745 436.813 527.905 437.153 528.225 437.42C528.558 437.673 529.025 437.8 529.625 437.8C530.011 437.8 530.378 437.753 530.725 437.66C531.085 437.553 531.405 437.4 531.685 437.2C531.965 436.987 532.185 436.727 532.345 436.42C532.505 436.1 532.585 435.727 532.585 435.3V432.54Z" fill="black"/>
<path d="M540.042 426.16V436.24C540.042 436.733 540.182 437.1 540.462 437.34C540.742 437.58 541.102 437.7 541.542 437.7C541.929 437.7 542.262 437.633 542.542 437.5C542.822 437.367 543.076 437.187 543.302 436.96L543.862 438.3C543.556 438.58 543.189 438.8 542.762 438.96C542.349 439.12 541.869 439.2 541.322 439.2C540.816 439.2 540.342 439.113 539.902 438.94C539.462 438.753 539.109 438.467 538.842 438.08C538.589 437.68 538.456 437.16 538.442 436.52V426.6L540.042 426.16ZM543.682 429V430.38H536.442V429H543.682Z" fill="black"/>
<path d="M551.901 432.54C551.901 431.793 551.701 431.22 551.301 430.82C550.901 430.407 550.335 430.2 549.601 430.2C548.908 430.2 548.321 430.353 547.841 430.66C547.361 430.953 547.008 431.433 546.781 432.1L545.481 431.3C545.748 430.553 546.241 429.953 546.961 429.5C547.681 429.033 548.575 428.8 549.641 428.8C550.361 428.8 551.015 428.927 551.601 429.18C552.188 429.42 552.648 429.793 552.981 430.3C553.328 430.793 553.501 431.433 553.501 432.22V437.06C553.501 437.54 553.755 437.78 554.261 437.78C554.515 437.78 554.761 437.747 555.001 437.68L554.921 438.94C554.654 439.073 554.308 439.14 553.881 439.14C553.494 439.14 553.148 439.067 552.841 438.92C552.535 438.773 552.294 438.553 552.121 438.26C551.948 437.953 551.861 437.573 551.861 437.12V436.92L552.261 436.98C552.101 437.5 551.828 437.927 551.441 438.26C551.054 438.58 550.621 438.82 550.141 438.98C549.661 439.127 549.188 439.2 548.721 439.2C548.135 439.2 547.588 439.1 547.081 438.9C546.575 438.7 546.168 438.4 545.861 438C545.568 437.587 545.421 437.08 545.421 436.48C545.421 435.733 545.668 435.12 546.161 434.64C546.668 434.147 547.368 433.813 548.261 433.64L552.221 432.86V434.18L549.001 434.84C548.348 434.973 547.861 435.16 547.541 435.4C547.221 435.64 547.061 435.973 547.061 436.4C547.061 436.813 547.221 437.153 547.541 437.42C547.875 437.673 548.341 437.8 548.941 437.8C549.328 437.8 549.695 437.753 550.041 437.66C550.401 437.553 550.721 437.4 551.001 437.2C551.281 436.987 551.501 436.727 551.661 436.42C551.821 436.1 551.901 435.727 551.901 435.3V432.54Z" fill="black"/>
<path d="M284.391 440.8C286.457 440.8 288.077 441.373 289.251 442.52C290.437 443.653 291.031 445.28 291.031 447.4C291.031 449.52 290.437 451.153 289.251 452.3C288.077 453.433 286.457 454 284.391 454H280.131V440.8H284.391ZM284.551 452.5C286.057 452.5 287.231 452.053 288.071 451.16C288.924 450.253 289.351 449 289.351 447.4C289.351 445.8 288.924 444.553 288.071 443.66C287.231 442.753 286.057 442.3 284.551 442.3H281.731V452.5H284.551Z" fill="black"/>
<path d="M300.085 447.54C300.085 446.793 299.885 446.22 299.485 445.82C299.085 445.407 298.518 445.2 297.785 445.2C297.091 445.2 296.505 445.353 296.025 445.66C295.545 445.953 295.191 446.433 294.965 447.1L293.665 446.3C293.931 445.553 294.425 444.953 295.145 444.5C295.865 444.033 296.758 443.8 297.825 443.8C298.545 443.8 299.198 443.927 299.785 444.18C300.371 444.42 300.831 444.793 301.165 445.3C301.511 445.793 301.685 446.433 301.685 447.22V452.06C301.685 452.54 301.938 452.78 302.445 452.78C302.698 452.78 302.945 452.747 303.185 452.68L303.105 453.94C302.838 454.073 302.491 454.14 302.065 454.14C301.678 454.14 301.331 454.067 301.025 453.92C300.718 453.773 300.478 453.553 300.305 453.26C300.131 452.953 300.045 452.573 300.045 452.12V451.92L300.445 451.98C300.285 452.5 300.011 452.927 299.625 453.26C299.238 453.58 298.805 453.82 298.325 453.98C297.845 454.127 297.371 454.2 296.905 454.2C296.318 454.2 295.771 454.1 295.265 453.9C294.758 453.7 294.351 453.4 294.045 453C293.751 452.587 293.605 452.08 293.605 451.48C293.605 450.733 293.851 450.12 294.345 449.64C294.851 449.147 295.551 448.813 296.445 448.64L300.405 447.86V449.18L297.185 449.84C296.531 449.973 296.045 450.16 295.725 450.4C295.405 450.64 295.245 450.973 295.245 451.4C295.245 451.813 295.405 452.153 295.725 452.42C296.058 452.673 296.525 452.8 297.125 452.8C297.511 452.8 297.878 452.753 298.225 452.66C298.585 452.553 298.905 452.4 299.185 452.2C299.465 451.987 299.685 451.727 299.845 451.42C300.005 451.1 300.085 450.727 300.085 450.3V447.54Z" fill="black"/>
<path d="M307.542 441.16V451.24C307.542 451.733 307.682 452.1 307.962 452.34C308.242 452.58 308.602 452.7 309.042 452.7C309.429 452.7 309.762 452.633 310.042 452.5C310.322 452.367 310.576 452.187 310.802 451.96L311.362 453.3C311.056 453.58 310.689 453.8 310.262 453.96C309.849 454.12 309.369 454.2 308.822 454.2C308.316 454.2 307.842 454.113 307.402 453.94C306.962 453.753 306.609 453.467 306.342 453.08C306.089 452.68 305.956 452.16 305.942 451.52V441.6L307.542 441.16ZM311.182 444V445.38H303.942V444H311.182Z" fill="black"/>
<path d="M319.401 447.54C319.401 446.793 319.201 446.22 318.801 445.82C318.401 445.407 317.834 445.2 317.101 445.2C316.408 445.2 315.821 445.353 315.341 445.66C314.861 445.953 314.508 446.433 314.281 447.1L312.981 446.3C313.248 445.553 313.741 444.953 314.461 444.5C315.181 444.033 316.075 443.8 317.141 443.8C317.861 443.8 318.514 443.927 319.101 444.18C319.688 444.42 320.148 444.793 320.481 445.3C320.828 445.793 321.001 446.433 321.001 447.22V452.06C321.001 452.54 321.255 452.78 321.761 452.78C322.015 452.78 322.261 452.747 322.501 452.68L322.421 453.94C322.155 454.073 321.808 454.14 321.381 454.14C320.994 454.14 320.648 454.067 320.341 453.92C320.035 453.773 319.795 453.553 319.621 453.26C319.448 452.953 319.361 452.573 319.361 452.12V451.92L319.761 451.98C319.601 452.5 319.328 452.927 318.941 453.26C318.554 453.58 318.121 453.82 317.641 453.98C317.161 454.127 316.688 454.2 316.221 454.2C315.634 454.2 315.088 454.1 314.581 453.9C314.075 453.7 313.668 453.4 313.361 453C313.068 452.587 312.921 452.08 312.921 451.48C312.921 450.733 313.168 450.12 313.661 449.64C314.168 449.147 314.868 448.813 315.761 448.64L319.721 447.86V449.18L316.501 449.84C315.848 449.973 315.361 450.16 315.041 450.4C314.721 450.64 314.561 450.973 314.561 451.4C314.561 451.813 314.721 452.153 315.041 452.42C315.375 452.673 315.841 452.8 316.441 452.8C316.828 452.8 317.195 452.753 317.541 452.66C317.901 452.553 318.221 452.4 318.501 452.2C318.781 451.987 319.001 451.727 319.161 451.42C319.321 451.1 319.401 450.727 319.401 450.3V447.54Z" fill="black"/>
<path d="M269.049 477H267.349L265.949 473.34H259.969L258.569 477H256.889L262.029 463.8H263.929L269.049 477ZM260.549 471.84H265.369L262.949 465.34L260.549 471.84Z" fill="black"/>
<path d="M271.432 477V467H272.832L272.972 469.24L272.712 469.02C272.926 468.487 273.212 468.06 273.572 467.74C273.932 467.407 274.346 467.167 274.812 467.02C275.292 466.873 275.786 466.8 276.292 466.8C277.012 466.8 277.666 466.94 278.252 467.22C278.839 467.487 279.306 467.9 279.652 468.46C280.012 469.02 280.192 469.733 280.192 470.6V477H278.592V471.16C278.592 470.053 278.352 469.287 277.872 468.86C277.406 468.42 276.826 468.2 276.132 468.2C275.652 468.2 275.172 468.313 274.692 468.54C274.212 468.767 273.812 469.133 273.492 469.64C273.186 470.147 273.032 470.827 273.032 471.68V477H271.432Z" fill="black"/>
<path d="M289.655 470.54C289.655 469.793 289.455 469.22 289.055 468.82C288.655 468.407 288.088 468.2 287.355 468.2C286.662 468.2 286.075 468.353 285.595 468.66C285.115 468.953 284.762 469.433 284.535 470.1L283.235 469.3C283.502 468.553 283.995 467.953 284.715 467.5C285.435 467.033 286.328 466.8 287.395 466.8C288.115 466.8 288.768 466.927 289.355 467.18C289.942 467.42 290.402 467.793 290.735 468.3C291.082 468.793 291.255 469.433 291.255 470.22V475.06C291.255 475.54 291.508 475.78 292.015 475.78C292.268 475.78 292.515 475.747 292.755 475.68L292.675 476.94C292.408 477.073 292.062 477.14 291.635 477.14C291.248 477.14 290.902 477.067 290.595 476.92C290.288 476.773 290.048 476.553 289.875 476.26C289.702 475.953 289.615 475.573 289.615 475.12V474.92L290.015 474.98C289.855 475.5 289.582 475.927 289.195 476.26C288.808 476.58 288.375 476.82 287.895 476.98C287.415 477.127 286.942 477.2 286.475 477.2C285.888 477.2 285.342 477.1 284.835 476.9C284.328 476.7 283.922 476.4 283.615 476C283.322 475.587 283.175 475.08 283.175 474.48C283.175 473.733 283.422 473.12 283.915 472.64C284.422 472.147 285.122 471.813 286.015 471.64L289.975 470.86V472.18L286.755 472.84C286.102 472.973 285.615 473.16 285.295 473.4C284.975 473.64 284.815 473.973 284.815 474.4C284.815 474.813 284.975 475.153 285.295 475.42C285.628 475.673 286.095 475.8 286.695 475.8C287.082 475.8 287.448 475.753 287.795 475.66C288.155 475.553 288.475 475.4 288.755 475.2C289.035 474.987 289.255 474.727 289.415 474.42C289.575 474.1 289.655 473.727 289.655 473.3V470.54Z" fill="black"/>
<path d="M296.663 462.4V474.46C296.663 474.967 296.757 475.32 296.943 475.52C297.13 475.707 297.43 475.8 297.843 475.8C298.11 475.8 298.33 475.78 298.503 475.74C298.677 475.7 298.91 475.627 299.203 475.52L298.943 476.92C298.73 477.013 298.497 477.08 298.243 477.12C297.99 477.173 297.73 477.2 297.463 477.2C296.65 477.2 296.043 476.98 295.643 476.54C295.257 476.1 295.063 475.427 295.063 474.52V462.4H296.663Z" fill="black"/>
<path d="M308.969 467L304.269 478.68C304.015 479.333 303.735 479.847 303.429 480.22C303.135 480.607 302.802 480.88 302.429 481.04C302.069 481.213 301.649 481.3 301.169 481.3C300.715 481.3 300.295 481.233 299.909 481.1C299.535 480.98 299.202 480.813 298.909 480.6L299.349 479.2C299.615 479.44 299.895 479.613 300.189 479.72C300.495 479.84 300.795 479.9 301.089 479.9C301.435 479.9 301.762 479.793 302.069 479.58C302.375 479.367 302.655 478.933 302.909 478.28L303.429 476.98L302.429 474.6L299.249 467H301.069L303.569 473.52L304.189 475.3L304.909 473.32L307.249 467H308.969Z" fill="black"/>
<path d="M313.421 464.16V474.24C313.421 474.733 313.561 475.1 313.841 475.34C314.121 475.58 314.481 475.7 314.921 475.7C315.308 475.7 315.641 475.633 315.921 475.5C316.201 475.367 316.455 475.187 316.681 474.96L317.241 476.3C316.935 476.58 316.568 476.8 316.141 476.96C315.728 477.12 315.248 477.2 314.701 477.2C314.195 477.2 313.721 477.113 313.281 476.94C312.841 476.753 312.488 476.467 312.221 476.08C311.968 475.68 311.835 475.16 311.821 474.52V464.6L313.421 464.16ZM317.061 467V468.38H309.821V467H317.061Z" fill="black"/>
<path d="M320.24 465.08C319.88 465.08 319.587 464.973 319.36 464.76C319.147 464.533 319.04 464.24 319.04 463.88C319.04 463.52 319.147 463.233 319.36 463.02C319.587 462.793 319.88 462.68 320.24 462.68C320.6 462.68 320.887 462.793 321.1 463.02C321.327 463.233 321.44 463.52 321.44 463.88C321.44 464.24 321.327 464.533 321.1 464.76C320.887 464.973 320.6 465.08 320.24 465.08ZM321.04 467V477H319.44V467H321.04Z" fill="black"/>
<path d="M328.893 466.8C329.586 466.8 330.193 466.907 330.713 467.12C331.246 467.333 331.706 467.64 332.093 468.04C332.479 468.44 332.793 468.913 333.033 469.46L331.513 470.18C331.299 469.54 330.973 469.053 330.533 468.72C330.106 468.373 329.546 468.2 328.853 468.2C328.186 468.2 327.613 468.353 327.133 468.66C326.653 468.953 326.286 469.387 326.033 469.96C325.779 470.52 325.653 471.2 325.653 472C325.653 472.787 325.779 473.467 326.033 474.04C326.286 474.613 326.653 475.053 327.133 475.36C327.613 475.653 328.186 475.8 328.853 475.8C329.373 475.8 329.819 475.72 330.193 475.56C330.579 475.4 330.893 475.167 331.133 474.86C331.386 474.553 331.559 474.18 331.653 473.74L333.133 474.26C332.906 474.873 332.593 475.4 332.193 475.84C331.806 476.28 331.333 476.62 330.773 476.86C330.226 477.087 329.599 477.2 328.893 477.2C327.959 477.2 327.126 476.993 326.393 476.58C325.659 476.167 325.086 475.573 324.673 474.8C324.259 474.013 324.053 473.08 324.053 472C324.053 470.92 324.259 469.993 324.673 469.22C325.086 468.433 325.659 467.833 326.393 467.42C327.126 467.007 327.959 466.8 328.893 466.8Z" fill="black"/>
<path d="M339.544 477.2C338.571 477.2 337.671 476.993 336.844 476.58C336.031 476.167 335.404 475.58 334.964 474.82L336.324 473.84C336.617 474.453 337.044 474.933 337.604 475.28C338.177 475.627 338.864 475.8 339.664 475.8C340.371 475.8 340.924 475.667 341.324 475.4C341.724 475.12 341.924 474.76 341.924 474.32C341.924 474.04 341.831 473.787 341.644 473.56C341.471 473.32 341.131 473.147 340.624 473.04L338.224 472.54C337.251 472.34 336.551 472.007 336.124 471.54C335.711 471.073 335.504 470.493 335.504 469.8C335.504 469.253 335.657 468.753 335.964 468.3C336.284 467.847 336.731 467.487 337.304 467.22C337.891 466.94 338.577 466.8 339.364 466.8C340.351 466.8 341.184 466.993 341.864 467.38C342.544 467.767 343.051 468.313 343.384 469.02L342.044 469.9C341.817 469.313 341.451 468.887 340.944 468.62C340.437 468.34 339.911 468.2 339.364 468.2C338.884 468.2 338.471 468.267 338.124 468.4C337.791 468.533 337.531 468.72 337.344 468.96C337.171 469.187 337.084 469.447 337.084 469.74C337.084 470.033 337.184 470.307 337.384 470.56C337.584 470.8 337.957 470.973 338.504 471.08L341.004 471.6C341.937 471.787 342.591 472.093 342.964 472.52C343.337 472.947 343.524 473.467 343.524 474.08C343.524 474.707 343.357 475.26 343.024 475.74C342.691 476.207 342.224 476.567 341.624 476.82C341.024 477.073 340.331 477.2 339.544 477.2Z" fill="black"/>
<path d="M150.391 263.8V272.08C150.391 273.773 149.944 275.053 149.051 275.92C148.158 276.773 146.878 277.2 145.211 277.2C143.558 277.2 142.278 276.773 141.371 275.92C140.478 275.053 140.031 273.773 140.031 272.08V263.8H141.631V271.68C141.631 273.053 141.918 274.067 142.491 274.72C143.078 275.373 143.984 275.7 145.211 275.7C146.438 275.7 147.338 275.373 147.911 274.72C148.498 274.067 148.791 273.053 148.791 271.68V263.8H150.391Z" fill="black"/>
<path d="M156.051 263.8V277H154.451V263.8H156.051Z" fill="black"/>
<path d="M171.445 263.8C173.512 263.8 175.132 264.373 176.305 265.52C177.492 266.653 178.085 268.28 178.085 270.4C178.085 272.52 177.492 274.153 176.305 275.3C175.132 276.433 173.512 277 171.445 277H167.185V263.8H171.445ZM171.605 275.5C173.112 275.5 174.285 275.053 175.125 274.16C175.979 273.253 176.405 272 176.405 270.4C176.405 268.8 175.979 267.553 175.125 266.66C174.285 265.753 173.112 265.3 171.605 265.3H168.785V275.5H171.605Z" fill="black"/>
<path d="M185.479 277.2C184.533 277.2 183.686 276.993 182.939 276.58C182.206 276.167 181.633 275.573 181.219 274.8C180.806 274.013 180.599 273.08 180.599 272C180.599 270.92 180.806 269.993 181.219 269.22C181.633 268.433 182.199 267.833 182.919 267.42C183.639 267.007 184.459 266.8 185.379 266.8C186.313 266.8 187.106 267 187.759 267.4C188.426 267.8 188.933 268.347 189.279 269.04C189.626 269.72 189.799 270.487 189.799 271.34C189.799 271.567 189.793 271.773 189.779 271.96C189.766 272.147 189.746 272.313 189.719 272.46H181.639V271.04H189.019L188.199 271.2C188.199 270.24 187.933 269.5 187.399 268.98C186.879 268.46 186.193 268.2 185.339 268.2C184.686 268.2 184.119 268.353 183.639 268.66C183.173 268.953 182.806 269.387 182.539 269.96C182.286 270.52 182.159 271.2 182.159 272C182.159 272.787 182.293 273.467 182.559 274.04C182.826 274.613 183.199 275.053 183.679 275.36C184.173 275.653 184.759 275.8 185.439 275.8C186.173 275.8 186.766 275.66 187.219 275.38C187.686 275.1 188.059 274.72 188.339 274.24L189.599 274.98C189.346 275.433 189.019 275.827 188.619 276.16C188.233 276.493 187.773 276.753 187.239 276.94C186.719 277.113 186.133 277.2 185.479 277.2Z" fill="black"/>
<path d="M196.442 277.2C195.469 277.2 194.569 276.993 193.742 276.58C192.929 276.167 192.302 275.58 191.862 274.82L193.222 273.84C193.516 274.453 193.942 274.933 194.502 275.28C195.076 275.627 195.762 275.8 196.562 275.8C197.269 275.8 197.822 275.667 198.222 275.4C198.622 275.12 198.822 274.76 198.822 274.32C198.822 274.04 198.729 273.787 198.542 273.56C198.369 273.32 198.029 273.147 197.522 273.04L195.122 272.54C194.149 272.34 193.449 272.007 193.022 271.54C192.609 271.073 192.402 270.493 192.402 269.8C192.402 269.253 192.556 268.753 192.862 268.3C193.182 267.847 193.629 267.487 194.202 267.22C194.789 266.94 195.476 266.8 196.262 266.8C197.249 266.8 198.082 266.993 198.762 267.38C199.442 267.767 199.949 268.313 200.282 269.02L198.942 269.9C198.716 269.313 198.349 268.887 197.842 268.62C197.336 268.34 196.809 268.2 196.262 268.2C195.782 268.2 195.369 268.267 195.022 268.4C194.689 268.533 194.429 268.72 194.242 268.96C194.069 269.187 193.982 269.447 193.982 269.74C193.982 270.033 194.082 270.307 194.282 270.56C194.482 270.8 194.856 270.973 195.402 271.08L197.902 271.6C198.836 271.787 199.489 272.093 199.862 272.52C200.236 272.947 200.422 273.467 200.422 274.08C200.422 274.707 200.256 275.26 199.922 275.74C199.589 276.207 199.122 276.567 198.522 276.82C197.922 277.073 197.229 277.2 196.442 277.2Z" fill="black"/>
<path d="M204.189 265.08C203.829 265.08 203.536 264.973 203.309 264.76C203.096 264.533 202.989 264.24 202.989 263.88C202.989 263.52 203.096 263.233 203.309 263.02C203.536 262.793 203.829 262.68 204.189 262.68C204.549 262.68 204.836 262.793 205.049 263.02C205.276 263.233 205.389 263.52 205.389 263.88C205.389 264.24 205.276 264.533 205.049 264.76C204.836 264.973 204.549 265.08 204.189 265.08ZM204.989 267V277H203.389V267H204.989Z" fill="black"/>
<path d="M217.122 265.16L217.482 266.58C217.468 266.58 217.448 266.58 217.422 266.58C217.395 266.58 217.368 266.58 217.342 266.58C216.688 266.58 216.182 266.713 215.822 266.98C215.475 267.233 215.302 267.647 215.302 268.22L214.322 267.72C214.322 267.2 214.442 266.747 214.682 266.36C214.922 265.973 215.248 265.68 215.662 265.48C216.075 265.267 216.528 265.16 217.022 265.16C217.035 265.16 217.048 265.16 217.062 265.16C217.088 265.16 217.108 265.16 217.122 265.16ZM214.082 275.72C215.028 275.72 215.768 275.94 216.302 276.38C216.835 276.807 217.102 277.38 217.102 278.1C217.102 278.753 216.882 279.32 216.442 279.8C216.015 280.28 215.435 280.647 214.702 280.9C213.982 281.167 213.168 281.3 212.262 281.3C210.688 281.3 209.508 281.033 208.722 280.5C207.948 279.967 207.562 279.327 207.562 278.58C207.562 278.047 207.735 277.567 208.082 277.14C208.442 276.727 209.042 276.493 209.882 276.44L209.742 276.74C209.288 276.62 208.902 276.42 208.582 276.14C208.275 275.847 208.122 275.427 208.122 274.88C208.122 274.333 208.322 273.867 208.722 273.48C209.135 273.08 209.742 272.833 210.542 272.74L211.602 273.28H211.402C210.748 273.347 210.282 273.513 210.002 273.78C209.735 274.033 209.602 274.313 209.602 274.62C209.602 274.993 209.735 275.273 210.002 275.46C210.282 275.633 210.668 275.72 211.162 275.72H214.082ZM212.242 279.96C213.015 279.96 213.648 279.88 214.142 279.72C214.648 279.56 215.022 279.353 215.262 279.1C215.502 278.847 215.622 278.573 215.622 278.28C215.622 277.92 215.475 277.633 215.182 277.42C214.902 277.207 214.388 277.1 213.642 277.1H210.562C210.135 277.1 209.775 277.207 209.482 277.42C209.188 277.647 209.042 277.953 209.042 278.34C209.042 278.833 209.322 279.227 209.882 279.52C210.455 279.813 211.242 279.96 212.242 279.96ZM212.102 266.8C212.902 266.8 213.608 266.947 214.222 267.24C214.848 267.52 215.335 267.913 215.682 268.42C216.028 268.927 216.202 269.513 216.202 270.18C216.202 270.833 216.028 271.42 215.682 271.94C215.335 272.447 214.848 272.847 214.222 273.14C213.608 273.42 212.902 273.56 212.102 273.56C210.782 273.56 209.768 273.247 209.062 272.62C208.355 271.98 208.002 271.167 208.002 270.18C208.002 269.513 208.175 268.927 208.522 268.42C208.882 267.913 209.368 267.52 209.982 267.24C210.595 266.947 211.302 266.8 212.102 266.8ZM212.102 268.1C211.408 268.1 210.828 268.293 210.362 268.68C209.895 269.053 209.662 269.553 209.662 270.18C209.662 270.793 209.895 271.293 210.362 271.68C210.828 272.067 211.408 272.26 212.102 272.26C212.795 272.26 213.375 272.067 213.842 271.68C214.308 271.293 214.542 270.793 214.542 270.18C214.542 269.553 214.308 269.053 213.842 268.68C213.375 268.293 212.795 268.1 212.102 268.1Z" fill="black"/>
<path d="M219.346 277V267H220.746L220.886 269.24L220.626 269.02C220.84 268.487 221.126 268.06 221.486 267.74C221.846 267.407 222.26 267.167 222.726 267.02C223.206 266.873 223.7 266.8 224.206 266.8C224.926 266.8 225.58 266.94 226.166 267.22C226.753 267.487 227.22 267.9 227.566 268.46C227.926 269.02 228.106 269.733 228.106 270.6V277H226.506V271.16C226.506 270.053 226.266 269.287 225.786 268.86C225.32 268.42 224.74 268.2 224.046 268.2C223.566 268.2 223.086 268.313 222.606 268.54C222.126 268.767 221.726 269.133 221.406 269.64C221.1 270.147 220.946 270.827 220.946 271.68V277H219.346Z" fill="black"/>
<path d="M363.918 251.8V265H362.318V251.8H363.918Z" fill="black"/>
<path d="M367.839 265V255H369.239L369.379 257.24L369.119 257.02C369.332 256.487 369.619 256.06 369.979 255.74C370.339 255.407 370.752 255.167 371.219 255.02C371.699 254.873 372.192 254.8 372.699 254.8C373.419 254.8 374.072 254.94 374.659 255.22C375.245 255.487 375.712 255.9 376.059 256.46C376.419 257.02 376.599 257.733 376.599 258.6V265H374.999V259.16C374.999 258.053 374.759 257.287 374.279 256.86C373.812 256.42 373.232 256.2 372.539 256.2C372.059 256.2 371.579 256.313 371.099 256.54C370.619 256.767 370.219 257.133 369.899 257.64C369.592 258.147 369.439 258.827 369.439 259.68V265H367.839Z" fill="black"/>
<path d="M384.145 250.3C384.491 250.3 384.818 250.34 385.125 250.42C385.431 250.5 385.671 250.613 385.845 250.76L385.425 252.06C385.265 251.953 385.091 251.88 384.905 251.84C384.718 251.787 384.511 251.76 384.285 251.76C383.711 251.76 383.265 251.9 382.945 252.18C382.625 252.447 382.465 252.88 382.465 253.48V265H380.865V253.32C380.865 252.88 380.931 252.473 381.065 252.1C381.198 251.727 381.398 251.407 381.665 251.14C381.945 250.873 382.291 250.667 382.705 250.52C383.118 250.373 383.598 250.3 384.145 250.3ZM385.805 255V256.38H378.865V255H385.805Z" fill="black"/>
<path d="M391.803 254.8C392.749 254.8 393.583 255.007 394.303 255.42C395.036 255.833 395.609 256.433 396.023 257.22C396.436 257.993 396.643 258.92 396.643 260C396.643 261.08 396.436 262.013 396.023 262.8C395.609 263.573 395.036 264.167 394.303 264.58C393.583 264.993 392.749 265.2 391.803 265.2C390.869 265.2 390.036 264.993 389.303 264.58C388.569 264.167 387.996 263.573 387.583 262.8C387.169 262.013 386.963 261.08 386.963 260C386.963 258.92 387.169 257.993 387.583 257.22C387.996 256.433 388.569 255.833 389.303 255.42C390.036 255.007 390.869 254.8 391.803 254.8ZM391.803 256.18C391.123 256.18 390.543 256.333 390.063 256.64C389.583 256.947 389.209 257.387 388.943 257.96C388.689 258.52 388.563 259.2 388.563 260C388.563 260.787 388.689 261.467 388.943 262.04C389.209 262.613 389.583 263.053 390.063 263.36C390.543 263.667 391.123 263.82 391.803 263.82C392.483 263.82 393.063 263.667 393.543 263.36C394.023 263.053 394.389 262.613 394.643 262.04C394.909 261.467 395.043 260.787 395.043 260C395.043 259.2 394.909 258.52 394.643 257.96C394.389 257.387 394.023 256.947 393.543 256.64C393.063 256.333 392.483 256.18 391.803 256.18Z" fill="black"/>
<path d="M399.655 265V255H400.955L401.175 256.64C401.455 256.027 401.862 255.567 402.395 255.26C402.942 254.953 403.602 254.8 404.375 254.8C404.548 254.8 404.735 254.813 404.935 254.84C405.148 254.867 405.328 254.92 405.475 255L405.195 256.46C405.048 256.407 404.888 256.367 404.715 256.34C404.542 256.313 404.295 256.3 403.975 256.3C403.562 256.3 403.142 256.42 402.715 256.66C402.302 256.9 401.955 257.267 401.675 257.76C401.395 258.24 401.255 258.853 401.255 259.6V265H399.655Z" fill="black"/>
<path d="M407.819 265V255H409.219L409.319 256.56C409.679 255.947 410.146 255.5 410.719 255.22C411.306 254.94 411.906 254.8 412.519 254.8C413.226 254.8 413.892 254.96 414.519 255.28C415.146 255.6 415.626 256.093 415.959 256.76C416.172 256.307 416.472 255.94 416.859 255.66C417.246 255.367 417.666 255.153 418.119 255.02C418.586 254.873 419.026 254.8 419.439 254.8C420.079 254.8 420.686 254.933 421.259 255.2C421.846 255.467 422.326 255.88 422.699 256.44C423.072 257 423.259 257.72 423.259 258.6V265H421.659V258.76C421.659 257.853 421.432 257.2 420.979 256.8C420.526 256.4 419.966 256.2 419.299 256.2C418.779 256.2 418.292 256.327 417.839 256.58C417.386 256.833 417.019 257.207 416.739 257.7C416.472 258.193 416.339 258.8 416.339 259.52V265H414.739V258.76C414.739 257.853 414.512 257.2 414.059 256.8C413.606 256.4 413.046 256.2 412.379 256.2C411.939 256.2 411.486 256.32 411.019 256.56C410.566 256.787 410.186 257.153 409.879 257.66C409.572 258.167 409.419 258.833 409.419 259.66V265H407.819Z" fill="black"/>
<path d="M432.721 258.54C432.721 257.793 432.521 257.22 432.121 256.82C431.721 256.407 431.155 256.2 430.421 256.2C429.728 256.2 429.141 256.353 428.661 256.66C428.181 256.953 427.828 257.433 427.601 258.1L426.301 257.3C426.568 256.553 427.061 255.953 427.781 255.5C428.501 255.033 429.395 254.8 430.461 254.8C431.181 254.8 431.835 254.927 432.421 255.18C433.008 255.42 433.468 255.793 433.801 256.3C434.148 256.793 434.321 257.433 434.321 258.22V263.06C434.321 263.54 434.575 263.78 435.081 263.78C435.335 263.78 435.581 263.747 435.821 263.68L435.741 264.94C435.475 265.073 435.128 265.14 434.701 265.14C434.315 265.14 433.968 265.067 433.661 264.92C433.355 264.773 433.115 264.553 432.941 264.26C432.768 263.953 432.681 263.573 432.681 263.12V262.92L433.081 262.98C432.921 263.5 432.648 263.927 432.261 264.26C431.875 264.58 431.441 264.82 430.961 264.98C430.481 265.127 430.008 265.2 429.541 265.2C428.955 265.2 428.408 265.1 427.901 264.9C427.395 264.7 426.988 264.4 426.681 264C426.388 263.587 426.241 263.08 426.241 262.48C426.241 261.733 426.488 261.12 426.981 260.64C427.488 260.147 428.188 259.813 429.081 259.64L433.041 258.86V260.18L429.821 260.84C429.168 260.973 428.681 261.16 428.361 261.4C428.041 261.64 427.881 261.973 427.881 262.4C427.881 262.813 428.041 263.153 428.361 263.42C428.695 263.673 429.161 263.8 429.761 263.8C430.148 263.8 430.515 263.753 430.861 263.66C431.221 263.553 431.541 263.4 431.821 263.2C432.101 262.987 432.321 262.727 432.481 262.42C432.641 262.1 432.721 261.727 432.721 261.3V258.54Z" fill="black"/>
<path d="M440.179 252.16V262.24C440.179 262.733 440.319 263.1 440.599 263.34C440.879 263.58 441.239 263.7 441.679 263.7C442.066 263.7 442.399 263.633 442.679 263.5C442.959 263.367 443.212 263.187 443.439 262.96L443.999 264.3C443.692 264.58 443.326 264.8 442.899 264.96C442.486 265.12 442.006 265.2 441.459 265.2C440.952 265.2 440.479 265.113 440.039 264.94C439.599 264.753 439.246 264.467 438.979 264.08C438.726 263.68 438.592 263.16 438.579 262.52V252.6L440.179 252.16ZM443.819 255V256.38H436.579V255H443.819Z" fill="black"/>
<path d="M446.998 253.08C446.638 253.08 446.345 252.973 446.118 252.76C445.905 252.533 445.798 252.24 445.798 251.88C445.798 251.52 445.905 251.233 446.118 251.02C446.345 250.793 446.638 250.68 446.998 250.68C447.358 250.68 447.645 250.793 447.858 251.02C448.085 251.233 448.198 251.52 448.198 251.88C448.198 252.24 448.085 252.533 447.858 252.76C447.645 252.973 447.358 253.08 446.998 253.08ZM447.798 255V265H446.198V255H447.798Z" fill="black"/>
<path d="M455.65 254.8C456.597 254.8 457.43 255.007 458.15 255.42C458.884 255.833 459.457 256.433 459.87 257.22C460.284 257.993 460.49 258.92 460.49 260C460.49 261.08 460.284 262.013 459.87 262.8C459.457 263.573 458.884 264.167 458.15 264.58C457.43 264.993 456.597 265.2 455.65 265.2C454.717 265.2 453.884 264.993 453.15 264.58C452.417 264.167 451.844 263.573 451.43 262.8C451.017 262.013 450.81 261.08 450.81 260C450.81 258.92 451.017 257.993 451.43 257.22C451.844 256.433 452.417 255.833 453.15 255.42C453.884 255.007 454.717 254.8 455.65 254.8ZM455.65 256.18C454.97 256.18 454.39 256.333 453.91 256.64C453.43 256.947 453.057 257.387 452.79 257.96C452.537 258.52 452.41 259.2 452.41 260C452.41 260.787 452.537 261.467 452.79 262.04C453.057 262.613 453.43 263.053 453.91 263.36C454.39 263.667 454.97 263.82 455.65 263.82C456.33 263.82 456.91 263.667 457.39 263.36C457.87 263.053 458.237 262.613 458.49 262.04C458.757 261.467 458.89 260.787 458.89 260C458.89 259.2 458.757 258.52 458.49 257.96C458.237 257.387 457.87 256.947 457.39 256.64C456.91 256.333 456.33 256.18 455.65 256.18Z" fill="black"/>
<path d="M463.503 265V255H464.903L465.043 257.24L464.783 257.02C464.996 256.487 465.283 256.06 465.643 255.74C466.003 255.407 466.416 255.167 466.883 255.02C467.363 254.873 467.856 254.8 468.363 254.8C469.083 254.8 469.736 254.94 470.323 255.22C470.909 255.487 471.376 255.9 471.723 256.46C472.083 257.02 472.263 257.733 472.263 258.6V265H470.663V259.16C470.663 258.053 470.423 257.287 469.943 256.86C469.476 256.42 468.896 256.2 468.203 256.2C467.723 256.2 467.243 256.313 466.763 256.54C466.283 256.767 465.883 257.133 465.563 257.64C465.256 258.147 465.103 258.827 465.103 259.68V265H463.503Z" fill="black"/>
<path d="M394.498 274.8C396.565 274.8 398.185 275.373 399.358 276.52C400.545 277.653 401.138 279.28 401.138 281.4C401.138 283.52 400.545 285.153 399.358 286.3C398.185 287.433 396.565 288 394.498 288H390.238V274.8H394.498ZM394.658 286.5C396.165 286.5 397.338 286.053 398.178 285.16C399.031 284.253 399.458 283 399.458 281.4C399.458 279.8 399.031 278.553 398.178 277.66C397.338 276.753 396.165 276.3 394.658 276.3H391.838V286.5H394.658Z" fill="black"/>
<path d="M408.532 288.2C407.586 288.2 406.739 287.993 405.992 287.58C405.259 287.167 404.686 286.573 404.272 285.8C403.859 285.013 403.652 284.08 403.652 283C403.652 281.92 403.859 280.993 404.272 280.22C404.686 279.433 405.252 278.833 405.972 278.42C406.692 278.007 407.512 277.8 408.432 277.8C409.366 277.8 410.159 278 410.812 278.4C411.479 278.8 411.986 279.347 412.332 280.04C412.679 280.72 412.852 281.487 412.852 282.34C412.852 282.567 412.846 282.773 412.832 282.96C412.819 283.147 412.799 283.313 412.772 283.46H404.692V282.04H412.072L411.252 282.2C411.252 281.24 410.986 280.5 410.452 279.98C409.932 279.46 409.246 279.2 408.392 279.2C407.739 279.2 407.172 279.353 406.692 279.66C406.226 279.953 405.859 280.387 405.592 280.96C405.339 281.52 405.212 282.2 405.212 283C405.212 283.787 405.346 284.467 405.612 285.04C405.879 285.613 406.252 286.053 406.732 286.36C407.226 286.653 407.812 286.8 408.492 286.8C409.226 286.8 409.819 286.66 410.272 286.38C410.739 286.1 411.112 285.72 411.392 285.24L412.652 285.98C412.399 286.433 412.072 286.827 411.672 287.16C411.286 287.493 410.826 287.753 410.292 287.94C409.772 288.113 409.186 288.2 408.532 288.2Z" fill="black"/>
<path d="M419.495 288.2C418.522 288.2 417.622 287.993 416.795 287.58C415.982 287.167 415.355 286.58 414.915 285.82L416.275 284.84C416.568 285.453 416.995 285.933 417.555 286.28C418.128 286.627 418.815 286.8 419.615 286.8C420.322 286.8 420.875 286.667 421.275 286.4C421.675 286.12 421.875 285.76 421.875 285.32C421.875 285.04 421.782 284.787 421.595 284.56C421.422 284.32 421.082 284.147 420.575 284.04L418.175 283.54C417.202 283.34 416.502 283.007 416.075 282.54C415.662 282.073 415.455 281.493 415.455 280.8C415.455 280.253 415.608 279.753 415.915 279.3C416.235 278.847 416.682 278.487 417.255 278.22C417.842 277.94 418.528 277.8 419.315 277.8C420.302 277.8 421.135 277.993 421.815 278.38C422.495 278.767 423.002 279.313 423.335 280.02L421.995 280.9C421.768 280.313 421.402 279.887 420.895 279.62C420.388 279.34 419.862 279.2 419.315 279.2C418.835 279.2 418.422 279.267 418.075 279.4C417.742 279.533 417.482 279.72 417.295 279.96C417.122 280.187 417.035 280.447 417.035 280.74C417.035 281.033 417.135 281.307 417.335 281.56C417.535 281.8 417.909 281.973 418.455 282.08L420.955 282.6C421.889 282.787 422.542 283.093 422.915 283.52C423.288 283.947 423.475 284.467 423.475 285.08C423.475 285.707 423.308 286.26 422.975 286.74C422.642 287.207 422.175 287.567 421.575 287.82C420.975 288.073 420.282 288.2 419.495 288.2Z" fill="black"/>
<path d="M427.242 276.08C426.882 276.08 426.589 275.973 426.362 275.76C426.149 275.533 426.042 275.24 426.042 274.88C426.042 274.52 426.149 274.233 426.362 274.02C426.589 273.793 426.882 273.68 427.242 273.68C427.602 273.68 427.889 273.793 428.102 274.02C428.329 274.233 428.442 274.52 428.442 274.88C428.442 275.24 428.329 275.533 428.102 275.76C427.889 275.973 427.602 276.08 427.242 276.08ZM428.042 278V288H426.442V278H428.042Z" fill="black"/>
<path d="M440.175 276.16L440.535 277.58C440.521 277.58 440.501 277.58 440.475 277.58C440.448 277.58 440.421 277.58 440.395 277.58C439.741 277.58 439.235 277.713 438.875 277.98C438.528 278.233 438.355 278.647 438.355 279.22L437.375 278.72C437.375 278.2 437.495 277.747 437.735 277.36C437.975 276.973 438.301 276.68 438.715 276.48C439.128 276.267 439.581 276.16 440.075 276.16C440.088 276.16 440.101 276.16 440.115 276.16C440.141 276.16 440.161 276.16 440.175 276.16ZM437.135 286.72C438.081 286.72 438.821 286.94 439.355 287.38C439.888 287.807 440.155 288.38 440.155 289.1C440.155 289.753 439.935 290.32 439.495 290.8C439.068 291.28 438.488 291.647 437.755 291.9C437.035 292.167 436.221 292.3 435.315 292.3C433.741 292.3 432.561 292.033 431.775 291.5C431.001 290.967 430.615 290.327 430.615 289.58C430.615 289.047 430.788 288.567 431.135 288.14C431.495 287.727 432.095 287.493 432.935 287.44L432.795 287.74C432.341 287.62 431.955 287.42 431.635 287.14C431.328 286.847 431.175 286.427 431.175 285.88C431.175 285.333 431.375 284.867 431.775 284.48C432.188 284.08 432.795 283.833 433.595 283.74L434.655 284.28H434.455C433.801 284.347 433.335 284.513 433.055 284.78C432.788 285.033 432.655 285.313 432.655 285.62C432.655 285.993 432.788 286.273 433.055 286.46C433.335 286.633 433.721 286.72 434.215 286.72H437.135ZM435.295 290.96C436.068 290.96 436.701 290.88 437.195 290.72C437.701 290.56 438.075 290.353 438.315 290.1C438.555 289.847 438.675 289.573 438.675 289.28C438.675 288.92 438.528 288.633 438.235 288.42C437.955 288.207 437.441 288.1 436.695 288.1H433.615C433.188 288.1 432.828 288.207 432.535 288.42C432.241 288.647 432.095 288.953 432.095 289.34C432.095 289.833 432.375 290.227 432.935 290.52C433.508 290.813 434.295 290.96 435.295 290.96ZM435.155 277.8C435.955 277.8 436.661 277.947 437.275 278.24C437.901 278.52 438.388 278.913 438.735 279.42C439.081 279.927 439.255 280.513 439.255 281.18C439.255 281.833 439.081 282.42 438.735 282.94C438.388 283.447 437.901 283.847 437.275 284.14C436.661 284.42 435.955 284.56 435.155 284.56C433.835 284.56 432.821 284.247 432.115 283.62C431.408 282.98 431.055 282.167 431.055 281.18C431.055 280.513 431.228 279.927 431.575 279.42C431.935 278.913 432.421 278.52 433.035 278.24C433.648 277.947 434.355 277.8 435.155 277.8ZM435.155 279.1C434.461 279.1 433.881 279.293 433.415 279.68C432.948 280.053 432.715 280.553 432.715 281.18C432.715 281.793 432.948 282.293 433.415 282.68C433.881 283.067 434.461 283.26 435.155 283.26C435.848 283.26 436.428 283.067 436.895 282.68C437.361 282.293 437.595 281.793 437.595 281.18C437.595 280.553 437.361 280.053 436.895 279.68C436.428 279.293 435.848 279.1 435.155 279.1Z" fill="black"/>
<path d="M442.399 288V278H443.799L443.939 280.24L443.679 280.02C443.892 279.487 444.179 279.06 444.539 278.74C444.899 278.407 445.312 278.167 445.779 278.02C446.259 277.873 446.752 277.8 447.259 277.8C447.979 277.8 448.632 277.94 449.219 278.22C449.806 278.487 450.272 278.9 450.619 279.46C450.979 280.02 451.159 280.733 451.159 281.6V288H449.559V282.16C449.559 281.053 449.319 280.287 448.839 279.86C448.372 279.42 447.792 279.2 447.099 279.2C446.619 279.2 446.139 279.313 445.659 279.54C445.179 279.767 444.779 280.133 444.459 280.64C444.152 281.147 443.999 281.827 443.999 282.68V288H442.399Z" fill="black"/>
<path d="M284.98 306.317C287.046 306.371 288.65 306.986 289.793 308.163C290.95 309.327 291.501 310.969 291.445 313.088C291.39 315.207 290.754 316.825 289.538 317.94C288.335 319.042 286.701 319.566 284.635 319.512L280.377 319.401L280.721 306.206L284.98 306.317ZM284.834 318.017C286.34 318.056 287.525 317.641 288.388 316.77C289.265 315.885 289.724 314.644 289.766 313.044C289.808 311.445 289.414 310.187 288.584 309.272C287.768 308.344 286.607 307.86 285.101 307.821L282.282 307.747L282.015 317.943L284.834 318.017Z" fill="black"/>
<path d="M300.493 313.465C300.512 312.718 300.327 312.14 299.938 311.73C299.549 311.306 298.988 311.084 298.254 311.065C297.561 311.047 296.971 311.185 296.483 311.479C295.996 311.76 295.63 312.231 295.386 312.891L294.107 312.057C294.393 311.318 294.902 310.731 295.634 310.297C296.366 309.849 297.265 309.639 298.331 309.667C299.051 309.686 299.701 309.829 300.28 310.098C300.861 310.353 301.311 310.738 301.631 311.254C301.964 311.756 302.121 312.4 302.1 313.187L301.974 318.025C301.961 318.505 302.208 318.751 302.715 318.764C302.968 318.771 303.216 318.744 303.457 318.684L303.344 319.941C303.074 320.068 302.726 320.125 302.299 320.114C301.913 320.104 301.568 320.022 301.266 319.867C300.963 319.712 300.729 319.486 300.563 319.188C300.398 318.877 300.321 318.495 300.333 318.042L300.338 317.842L300.736 317.913C300.563 318.428 300.279 318.848 299.883 319.171C299.488 319.48 299.049 319.709 298.565 319.856C298.081 319.991 297.606 320.051 297.14 320.039C296.553 320.024 296.009 319.91 295.508 319.697C295.007 319.483 294.608 319.173 294.312 318.765C294.03 318.344 293.896 317.834 293.912 317.234C293.931 316.488 294.194 315.881 294.7 315.414C295.219 314.934 295.928 314.619 296.825 314.469L300.804 313.793L300.77 315.112L297.533 315.688C296.877 315.804 296.386 315.978 296.059 316.21C295.733 316.441 295.565 316.77 295.553 317.197C295.543 317.61 295.694 317.954 296.007 318.229C296.333 318.491 296.796 318.63 297.396 318.646C297.783 318.656 298.15 318.619 298.499 318.534C298.862 318.437 299.186 318.292 299.471 318.1C299.757 317.894 299.983 317.639 300.151 317.337C300.32 317.021 300.409 316.65 300.42 316.224L300.493 313.465Z" fill="black"/>
<path d="M308.114 307.282L307.851 317.358C307.838 317.851 307.968 318.222 308.242 318.469C308.516 318.716 308.872 318.845 309.312 318.857C309.699 318.867 310.034 318.809 310.317 318.683C310.6 318.557 310.858 318.384 311.091 318.163L311.616 319.517C311.302 319.789 310.93 320 310.499 320.148C310.081 320.297 309.6 320.365 309.053 320.351C308.547 320.337 308.076 320.238 307.64 320.054C307.205 319.856 306.86 319.56 306.603 319.166C306.36 318.76 306.241 318.236 306.244 317.596L306.503 307.68L308.114 307.282ZM311.679 310.216L311.643 311.595L304.405 311.406L304.441 310.027L311.679 310.216Z" fill="black"/>
<path d="M319.802 313.969C319.822 313.223 319.637 312.645 319.248 312.234C318.858 311.811 318.297 311.589 317.564 311.57C316.871 311.552 316.281 311.69 315.793 311.984C315.305 312.265 314.94 312.735 314.696 313.396L313.417 312.562C313.703 311.823 314.212 311.236 314.943 310.801C315.675 310.354 316.575 310.144 317.641 310.172C318.361 310.19 319.01 310.334 319.59 310.603C320.17 310.858 320.621 311.243 320.941 311.758C321.274 312.26 321.431 312.905 321.41 313.691L321.284 318.53C321.271 319.009 321.518 319.256 322.025 319.269C322.278 319.276 322.525 319.249 322.767 319.189L322.654 320.446C322.384 320.572 322.036 320.63 321.609 320.619C321.223 320.609 320.878 320.526 320.575 320.372C320.273 320.217 320.038 319.991 319.873 319.693C319.708 319.382 319.631 319 319.643 318.547L319.648 318.347L320.046 318.417C319.873 318.933 319.588 319.352 319.193 319.675C318.798 319.985 318.359 320.214 317.875 320.361C317.391 320.495 316.916 320.556 316.449 320.544C315.863 320.529 315.319 320.414 314.818 320.201C314.317 319.988 313.918 319.677 313.622 319.27C313.339 318.849 313.206 318.338 313.222 317.739C313.241 316.992 313.504 316.386 314.009 315.919C314.529 315.439 315.237 315.124 316.135 314.974L320.114 314.298L320.079 315.617L316.843 316.193C316.187 316.309 315.695 316.483 315.369 316.714C315.043 316.946 314.874 317.275 314.863 317.702C314.852 318.115 315.003 318.459 315.316 318.734C315.643 318.996 316.106 319.135 316.706 319.15C317.092 319.16 317.46 319.123 317.809 319.039C318.172 318.942 318.496 318.797 318.781 318.604C319.066 318.398 319.293 318.144 319.461 317.842C319.629 317.526 319.719 317.155 319.73 316.728L319.802 313.969Z" fill="black"/>
<path d="M255.355 328.551L255.128 337.228C255.089 338.707 254.659 339.856 253.838 340.675C253.03 341.481 251.926 341.865 250.526 341.829C249.54 341.803 248.732 341.595 248.102 341.205C247.472 340.815 247.039 340.277 246.804 339.591C246.582 338.892 246.57 338.084 246.767 337.169L248.254 336.908C248.078 338.037 248.156 338.886 248.488 339.455C248.833 340.011 249.506 340.302 250.506 340.328C251.639 340.357 252.42 340.071 252.849 339.469C253.278 338.853 253.508 337.959 253.539 336.786L253.755 328.509L255.355 328.551Z" fill="black"/>
<path d="M263.146 331.755C264.092 331.78 264.92 332.008 265.629 332.44C266.351 332.873 266.908 333.487 267.301 334.285C267.694 335.068 267.876 336 267.848 337.08C267.82 338.159 267.589 339.087 267.155 339.863C266.722 340.625 266.133 341.203 265.389 341.597C264.659 341.992 263.82 342.176 262.874 342.152C261.941 342.127 261.113 341.899 260.391 341.467C259.669 341.034 259.111 340.426 258.718 339.642C258.326 338.845 258.143 337.907 258.172 336.827C258.2 335.747 258.431 334.826 258.864 334.064C259.298 333.288 259.886 332.704 260.63 332.31C261.374 331.916 262.213 331.731 263.146 331.755ZM263.11 333.135C262.43 333.117 261.846 333.255 261.358 333.549C260.87 333.843 260.486 334.273 260.204 334.839C259.936 335.393 259.792 336.069 259.771 336.869C259.75 337.655 259.859 338.338 260.098 338.918C260.349 339.498 260.711 339.948 261.183 340.267C261.655 340.586 262.23 340.754 262.91 340.772C263.59 340.79 264.174 340.652 264.661 340.358C265.149 340.064 265.527 339.633 265.796 339.067C266.077 338.501 266.228 337.824 266.249 337.038C266.27 336.238 266.154 335.555 265.902 334.988C265.664 334.409 265.309 333.959 264.837 333.64C264.365 333.321 263.789 333.152 263.11 333.135Z" fill="black"/>
<path d="M274.342 342.451C273.703 342.435 273.099 342.299 272.532 342.044C271.979 341.789 271.529 341.391 271.183 340.848C270.851 340.293 270.696 339.582 270.719 338.715L270.89 332.158L272.49 332.199L272.329 338.337C272.303 339.35 272.504 340.056 272.934 340.454C273.364 340.839 273.979 341.041 274.779 341.062C275.152 341.072 275.52 341.022 275.883 340.911C276.246 340.787 276.572 340.596 276.858 340.336C277.159 340.064 277.395 339.717 277.566 339.294C277.75 338.872 277.85 338.368 277.865 337.782L278.008 332.344L279.607 332.385L279.346 342.382L277.946 342.345L277.886 340.823C277.524 341.414 277.039 341.842 276.432 342.106C275.839 342.357 275.142 342.472 274.342 342.451Z" fill="black"/>
<path d="M283.068 342.479L283.33 332.483L284.629 332.517L284.806 334.162C285.102 333.556 285.521 333.107 286.062 332.814C286.616 332.522 287.28 332.386 288.053 332.406C288.226 332.411 288.413 332.429 288.612 332.461C288.824 332.493 289.003 332.551 289.148 332.635L288.829 334.087C288.684 334.03 288.525 333.986 288.353 333.954C288.18 333.923 287.934 333.904 287.614 333.895C287.201 333.884 286.778 333.993 286.345 334.222C285.926 334.451 285.57 334.809 285.277 335.295C284.984 335.767 284.828 336.377 284.809 337.123L284.668 342.521L283.068 342.479Z" fill="black"/>
<path d="M291.23 342.693L291.491 332.696L292.89 332.733L292.972 334.975L292.718 334.749C292.945 334.221 293.243 333.802 293.611 333.492C293.979 333.168 294.399 332.939 294.869 332.804C295.353 332.67 295.848 332.61 296.354 332.623C297.074 332.642 297.724 332.799 298.303 333.094C298.882 333.376 299.338 333.801 299.67 334.37C300.015 334.939 300.176 335.657 300.154 336.524L299.987 342.921L298.387 342.88L298.54 337.042C298.569 335.935 298.349 335.163 297.88 334.724C297.425 334.272 296.851 334.037 296.158 334.018C295.678 334.006 295.195 334.107 294.709 334.321C294.224 334.535 293.814 334.891 293.481 335.389C293.161 335.887 292.99 336.563 292.968 337.416L292.829 342.734L291.23 342.693Z" fill="black"/>
<path d="M309.615 336.711C309.634 335.964 309.449 335.386 309.06 334.976C308.671 334.552 308.11 334.331 307.377 334.312C306.684 334.294 306.093 334.431 305.605 334.725C305.118 335.006 304.752 335.477 304.508 336.137L303.23 335.304C303.516 334.564 304.024 333.977 304.756 333.543C305.488 333.095 306.387 332.885 307.453 332.913C308.173 332.932 308.823 333.076 309.403 333.344C309.983 333.599 310.433 333.985 310.753 334.5C311.087 335.002 311.243 335.646 311.223 336.433L311.096 341.271C311.084 341.751 311.331 341.998 311.837 342.011C312.09 342.017 312.338 341.991 312.58 341.93L312.467 343.188C312.197 343.314 311.848 343.372 311.422 343.36C311.035 343.35 310.691 343.268 310.388 343.113C310.085 342.959 309.851 342.732 309.685 342.435C309.52 342.124 309.443 341.741 309.455 341.288L309.461 341.088L309.859 341.159C309.685 341.674 309.401 342.094 309.006 342.417C308.611 342.727 308.171 342.955 307.687 343.103C307.204 343.237 306.729 343.298 306.262 343.286C305.676 343.27 305.132 343.156 304.63 342.943C304.129 342.73 303.73 342.419 303.434 342.011C303.152 341.59 303.019 341.08 303.034 340.48C303.054 339.734 303.316 339.127 303.822 338.66C304.341 338.18 305.05 337.865 305.947 337.715L309.926 337.039L309.892 338.359L306.656 338.934C305.999 339.051 305.508 339.224 305.182 339.456C304.856 339.688 304.687 340.017 304.676 340.443C304.665 340.856 304.816 341.2 305.129 341.475C305.456 341.737 305.919 341.876 306.519 341.892C306.905 341.902 307.273 341.865 307.622 341.781C307.984 341.683 308.308 341.538 308.593 341.346C308.879 341.14 309.106 340.886 309.274 340.583C309.442 340.268 309.532 339.896 309.543 339.47L309.615 336.711Z" fill="black"/>
<path d="M316.833 328.757L316.518 340.813C316.505 341.319 316.589 341.675 316.77 341.88C316.952 342.071 317.25 342.172 317.663 342.183C317.929 342.19 318.15 342.176 318.324 342.14C318.499 342.105 318.734 342.038 319.03 341.939L318.733 343.331C318.517 343.419 318.282 343.48 318.028 343.513C317.774 343.56 317.513 343.58 317.246 343.573C316.433 343.551 315.833 343.316 315.444 342.865C315.069 342.415 314.894 341.737 314.917 340.831L315.234 328.715L316.833 328.757Z" fill="black"/>
<path d="M322.155 331.577C321.795 331.567 321.504 331.453 321.283 331.234C321.076 331.002 320.977 330.706 320.987 330.346C320.996 329.986 321.11 329.702 321.329 329.494C321.561 329.274 321.858 329.168 322.217 329.178C322.577 329.187 322.861 329.308 323.068 329.54C323.289 329.759 323.395 330.049 323.386 330.409C323.376 330.768 323.255 331.059 323.023 331.279C322.804 331.487 322.515 331.586 322.155 331.577ZM322.904 333.517L322.643 343.514L321.044 343.472L321.305 333.475L322.904 333.517Z" fill="black"/>
<path d="M329.948 343.905C328.975 343.879 328.081 343.649 327.265 343.214C326.463 342.78 325.852 342.177 325.432 341.406L326.817 340.462C327.094 341.082 327.508 341.573 328.059 341.935C328.623 342.296 329.305 342.487 330.104 342.508C330.811 342.527 331.367 342.408 331.774 342.152C332.181 341.882 332.391 341.528 332.402 341.088C332.41 340.808 332.323 340.552 332.142 340.321C331.975 340.076 331.64 339.894 331.136 339.774L328.75 339.212C327.782 338.986 327.091 338.635 326.677 338.157C326.276 337.68 326.084 337.095 326.103 336.402C326.117 335.855 326.283 335.359 326.602 334.914C326.933 334.469 327.389 334.121 327.969 333.869C328.563 333.605 329.253 333.483 330.04 333.503C331.026 333.529 331.854 333.744 332.524 334.149C333.193 334.553 333.685 335.113 334 335.828L332.638 336.672C332.426 336.08 332.071 335.644 331.572 335.364C331.072 335.071 330.55 334.917 330.003 334.903C329.523 334.89 329.108 334.946 328.758 335.07C328.422 335.195 328.157 335.375 327.964 335.61C327.785 335.832 327.691 336.09 327.684 336.383C327.676 336.676 327.769 336.952 327.962 337.21C328.156 337.456 328.524 337.639 329.068 337.759L331.554 338.345C332.482 338.556 333.127 338.879 333.489 339.316C333.851 339.752 334.024 340.276 334.008 340.89C333.992 341.516 333.811 342.065 333.465 342.536C333.119 342.994 332.643 343.341 332.037 343.579C331.431 343.817 330.734 343.925 329.948 343.905Z" fill="black"/>
<path d="M336.898 343.886L337.159 333.89L338.558 333.926L338.618 335.488C338.993 334.884 339.472 334.45 340.052 334.185C340.646 333.921 341.249 333.796 341.862 333.812C342.569 333.831 343.231 334.008 343.849 334.344C344.467 334.681 344.934 335.186 345.25 335.862C345.475 335.414 345.785 335.055 346.178 334.785C346.573 334.502 346.998 334.3 347.455 334.179C347.925 334.044 348.367 333.982 348.78 333.993C349.42 334.01 350.023 334.159 350.589 334.441C351.168 334.723 351.638 335.148 351.996 335.718C352.355 336.287 352.522 337.012 352.499 337.892L352.332 344.29L350.733 344.248L350.896 338.01C350.92 337.103 350.71 336.444 350.267 336.033C349.825 335.621 349.27 335.406 348.604 335.389C348.084 335.375 347.594 335.489 347.134 335.731C346.674 335.972 346.298 336.336 346.005 336.822C345.726 337.308 345.577 337.911 345.558 338.631L345.415 344.109L343.815 344.067L343.978 337.829C344.002 336.923 343.792 336.264 343.35 335.852C342.907 335.44 342.352 335.226 341.686 335.208C341.246 335.197 340.79 335.305 340.317 335.533C339.858 335.747 339.468 336.104 339.149 336.602C338.829 337.101 338.658 337.763 338.637 338.59L338.497 343.928L336.898 343.886Z" fill="black"/>
<path d="M224.462 108.8L219.462 122H217.643L212.622 108.8H214.342L217.702 117.92L218.542 120.54L219.383 117.94L222.743 108.8H224.462Z" fill="black"/>
<path d="M227.691 110.08C227.331 110.08 227.038 109.973 226.811 109.76C226.598 109.533 226.491 109.24 226.491 108.88C226.491 108.52 226.598 108.233 226.811 108.02C227.038 107.793 227.331 107.68 227.691 107.68C228.051 107.68 228.338 107.793 228.551 108.02C228.778 108.233 228.891 108.52 228.891 108.88C228.891 109.24 228.778 109.533 228.551 109.76C228.338 109.973 228.051 110.08 227.691 110.08ZM228.491 112V122H226.891V112H228.491Z" fill="black"/>
<path d="M235.804 122.2C234.83 122.2 233.93 121.993 233.104 121.58C232.29 121.167 231.664 120.58 231.224 119.82L232.584 118.84C232.877 119.453 233.304 119.933 233.864 120.28C234.437 120.627 235.124 120.8 235.924 120.8C236.63 120.8 237.184 120.667 237.584 120.4C237.984 120.12 238.184 119.76 238.184 119.32C238.184 119.04 238.09 118.787 237.904 118.56C237.73 118.32 237.39 118.147 236.884 118.04L234.484 117.54C233.51 117.34 232.81 117.007 232.384 116.54C231.97 116.073 231.764 115.493 231.764 114.8C231.764 114.253 231.917 113.753 232.224 113.3C232.544 112.847 232.99 112.487 233.564 112.22C234.15 111.94 234.837 111.8 235.624 111.8C236.61 111.8 237.444 111.993 238.124 112.38C238.804 112.767 239.31 113.313 239.644 114.02L238.304 114.9C238.077 114.313 237.71 113.887 237.204 113.62C236.697 113.34 236.17 113.2 235.624 113.2C235.144 113.2 234.73 113.267 234.384 113.4C234.05 113.533 233.79 113.72 233.604 113.96C233.43 114.187 233.344 114.447 233.344 114.74C233.344 115.033 233.444 115.307 233.644 115.56C233.844 115.8 234.217 115.973 234.764 116.08L237.264 116.6C238.197 116.787 238.85 117.093 239.224 117.52C239.597 117.947 239.784 118.467 239.784 119.08C239.784 119.707 239.617 120.26 239.284 120.74C238.95 121.207 238.484 121.567 237.884 121.82C237.284 122.073 236.59 122.2 235.804 122.2Z" fill="black"/>
<path d="M246.371 122.2C245.731 122.2 245.124 122.08 244.551 121.84C243.991 121.6 243.531 121.213 243.171 120.68C242.824 120.133 242.651 119.427 242.651 118.56V112H244.251V118.14C244.251 119.153 244.471 119.853 244.911 120.24C245.351 120.613 245.971 120.8 246.771 120.8C247.144 120.8 247.511 120.74 247.871 120.62C248.231 120.487 248.551 120.287 248.831 120.02C249.124 119.74 249.351 119.387 249.511 118.96C249.684 118.533 249.771 118.027 249.771 117.44V112H251.371V122H249.971L249.871 120.48C249.524 121.08 249.051 121.52 248.451 121.8C247.864 122.067 247.171 122.2 246.371 122.2Z" fill="black"/>
<path d="M260.934 115.54C260.934 114.793 260.734 114.22 260.334 113.82C259.934 113.407 259.368 113.2 258.634 113.2C257.941 113.2 257.354 113.353 256.874 113.66C256.394 113.953 256.041 114.433 255.814 115.1L254.514 114.3C254.781 113.553 255.274 112.953 255.994 112.5C256.714 112.033 257.608 111.8 258.674 111.8C259.394 111.8 260.048 111.927 260.634 112.18C261.221 112.42 261.681 112.793 262.014 113.3C262.361 113.793 262.534 114.433 262.534 115.22V120.06C262.534 120.54 262.788 120.78 263.294 120.78C263.548 120.78 263.794 120.747 264.034 120.68L263.954 121.94C263.688 122.073 263.341 122.14 262.914 122.14C262.528 122.14 262.181 122.067 261.874 121.92C261.568 121.773 261.328 121.553 261.154 121.26C260.981 120.953 260.894 120.573 260.894 120.12V119.92L261.294 119.98C261.134 120.5 260.861 120.927 260.474 121.26C260.088 121.58 259.654 121.82 259.174 121.98C258.694 122.127 258.221 122.2 257.754 122.2C257.168 122.2 256.621 122.1 256.114 121.9C255.608 121.7 255.201 121.4 254.894 121C254.601 120.587 254.454 120.08 254.454 119.48C254.454 118.733 254.701 118.12 255.194 117.64C255.701 117.147 256.401 116.813 257.294 116.64L261.254 115.86V117.18L258.034 117.84C257.381 117.973 256.894 118.16 256.574 118.4C256.254 118.64 256.094 118.973 256.094 119.4C256.094 119.813 256.254 120.153 256.574 120.42C256.908 120.673 257.374 120.8 257.974 120.8C258.361 120.8 258.728 120.753 259.074 120.66C259.434 120.553 259.754 120.4 260.034 120.2C260.314 119.987 260.534 119.727 260.694 119.42C260.854 119.1 260.934 118.727 260.934 118.3V115.54Z" fill="black"/>
<path d="M267.943 107.4V119.46C267.943 119.967 268.036 120.32 268.223 120.52C268.409 120.707 268.709 120.8 269.122 120.8C269.389 120.8 269.609 120.78 269.783 120.74C269.956 120.7 270.189 120.627 270.483 120.52L270.223 121.92C270.009 122.013 269.776 122.08 269.522 122.12C269.269 122.173 269.009 122.2 268.742 122.2C267.929 122.2 267.322 121.98 266.922 121.54C266.536 121.1 266.342 120.427 266.342 119.52V107.4H267.943Z" fill="black"/>
<path d="M283.189 108.6C284.349 108.6 285.349 108.84 286.189 109.32C287.029 109.787 287.729 110.48 288.289 111.4L286.949 112.44C286.456 111.587 285.896 110.987 285.269 110.64C284.656 110.28 283.909 110.1 283.029 110.1C282.322 110.1 281.736 110.2 281.269 110.4C280.816 110.6 280.482 110.867 280.269 111.2C280.056 111.52 279.949 111.887 279.949 112.3C279.949 112.767 280.096 113.18 280.389 113.54C280.682 113.887 281.269 114.16 282.149 114.36L285.009 115C286.276 115.28 287.156 115.707 287.649 116.28C288.156 116.84 288.409 117.54 288.409 118.38C288.409 119.127 288.196 119.793 287.769 120.38C287.356 120.953 286.769 121.4 286.009 121.72C285.249 122.04 284.356 122.2 283.329 122.2C282.369 122.2 281.522 122.073 280.789 121.82C280.069 121.553 279.449 121.2 278.929 120.76C278.409 120.32 277.982 119.827 277.649 119.28L279.049 118.14C279.302 118.647 279.629 119.093 280.029 119.48C280.429 119.867 280.909 120.167 281.469 120.38C282.042 120.593 282.696 120.7 283.429 120.7C284.109 120.7 284.696 120.62 285.189 120.46C285.696 120.287 286.082 120.04 286.349 119.72C286.616 119.387 286.749 118.987 286.749 118.52C286.749 118.093 286.609 117.713 286.329 117.38C286.049 117.033 285.522 116.773 284.749 116.6L281.649 115.9C280.836 115.713 280.176 115.46 279.669 115.14C279.176 114.807 278.816 114.42 278.589 113.98C278.376 113.527 278.269 113.04 278.269 112.52C278.269 111.813 278.462 111.167 278.849 110.58C279.249 109.98 279.816 109.5 280.549 109.14C281.296 108.78 282.176 108.6 283.189 108.6Z" fill="black"/>
<path d="M293.822 109.16V119.24C293.822 119.733 293.962 120.1 294.242 120.34C294.522 120.58 294.882 120.7 295.322 120.7C295.708 120.7 296.042 120.633 296.322 120.5C296.602 120.367 296.855 120.187 297.082 119.96L297.642 121.3C297.335 121.58 296.968 121.8 296.542 121.96C296.128 122.12 295.648 122.2 295.102 122.2C294.595 122.2 294.122 122.113 293.682 121.94C293.242 121.753 292.888 121.467 292.622 121.08C292.368 120.68 292.235 120.16 292.222 119.52V109.6L293.822 109.16ZM297.462 112V113.38H290.222V112H297.462Z" fill="black"/>
<path d="M303.98 111.8C304.927 111.8 305.76 112.007 306.48 112.42C307.214 112.833 307.787 113.433 308.2 114.22C308.614 114.993 308.82 115.92 308.82 117C308.82 118.08 308.614 119.013 308.2 119.8C307.787 120.573 307.214 121.167 306.48 121.58C305.76 121.993 304.927 122.2 303.98 122.2C303.047 122.2 302.214 121.993 301.48 121.58C300.747 121.167 300.174 120.573 299.76 119.8C299.347 119.013 299.14 118.08 299.14 117C299.14 115.92 299.347 114.993 299.76 114.22C300.174 113.433 300.747 112.833 301.48 112.42C302.214 112.007 303.047 111.8 303.98 111.8ZM303.98 113.18C303.3 113.18 302.72 113.333 302.24 113.64C301.76 113.947 301.387 114.387 301.12 114.96C300.867 115.52 300.74 116.2 300.74 117C300.74 117.787 300.867 118.467 301.12 119.04C301.387 119.613 301.76 120.053 302.24 120.36C302.72 120.667 303.3 120.82 303.98 120.82C304.66 120.82 305.24 120.667 305.72 120.36C306.2 120.053 306.567 119.613 306.82 119.04C307.087 118.467 307.22 117.787 307.22 117C307.22 116.2 307.087 115.52 306.82 114.96C306.567 114.387 306.2 113.947 305.72 113.64C305.24 113.333 304.66 113.18 303.98 113.18Z" fill="black"/>
<path d="M311.833 122V112H313.133L313.353 113.64C313.633 113.027 314.039 112.567 314.573 112.26C315.119 111.953 315.779 111.8 316.553 111.8C316.726 111.8 316.913 111.813 317.113 111.84C317.326 111.867 317.506 111.92 317.653 112L317.373 113.46C317.226 113.407 317.066 113.367 316.893 113.34C316.719 113.313 316.473 113.3 316.153 113.3C315.739 113.3 315.319 113.42 314.893 113.66C314.479 113.9 314.133 114.267 313.853 114.76C313.573 115.24 313.433 115.853 313.433 116.6V122H311.833Z" fill="black"/>
<path d="M328.217 112L323.517 123.68C323.263 124.333 322.983 124.847 322.677 125.22C322.383 125.607 322.05 125.88 321.677 126.04C321.317 126.213 320.897 126.3 320.417 126.3C319.963 126.3 319.543 126.233 319.157 126.1C318.783 125.98 318.45 125.813 318.157 125.6L318.597 124.2C318.863 124.44 319.143 124.613 319.437 124.72C319.743 124.84 320.043 124.9 320.337 124.9C320.683 124.9 321.01 124.793 321.317 124.58C321.623 124.367 321.903 123.933 322.157 123.28L322.677 121.98L321.677 119.6L318.497 112H320.317L322.817 118.52L323.437 120.3L324.157 118.32L326.497 112H328.217Z" fill="black"/>
<path d="M332.669 109.16V119.24C332.669 119.733 332.809 120.1 333.089 120.34C333.369 120.58 333.729 120.7 334.169 120.7C334.556 120.7 334.889 120.633 335.169 120.5C335.449 120.367 335.703 120.187 335.929 119.96L336.489 121.3C336.183 121.58 335.816 121.8 335.389 121.96C334.976 122.12 334.496 122.2 333.949 122.2C333.443 122.2 332.969 122.113 332.529 121.94C332.089 121.753 331.736 121.467 331.469 121.08C331.216 120.68 331.083 120.16 331.069 119.52V109.6L332.669 109.16ZM336.309 112V113.38H329.069V112H336.309Z" fill="black"/>
<path d="M342.868 122.2C341.921 122.2 341.075 121.993 340.328 121.58C339.595 121.167 339.021 120.573 338.608 119.8C338.195 119.013 337.988 118.08 337.988 117C337.988 115.92 338.195 114.993 338.608 114.22C339.021 113.433 339.588 112.833 340.308 112.42C341.028 112.007 341.848 111.8 342.768 111.8C343.701 111.8 344.495 112 345.148 112.4C345.815 112.8 346.321 113.347 346.668 114.04C347.015 114.72 347.188 115.487 347.188 116.34C347.188 116.567 347.181 116.773 347.168 116.96C347.155 117.147 347.135 117.313 347.108 117.46H339.028V116.04H346.408L345.588 116.2C345.588 115.24 345.321 114.5 344.788 113.98C344.268 113.46 343.581 113.2 342.728 113.2C342.075 113.2 341.508 113.353 341.028 113.66C340.561 113.953 340.195 114.387 339.928 114.96C339.675 115.52 339.548 116.2 339.548 117C339.548 117.787 339.681 118.467 339.948 119.04C340.215 119.613 340.588 120.053 341.068 120.36C341.561 120.653 342.148 120.8 342.828 120.8C343.561 120.8 344.155 120.66 344.608 120.38C345.075 120.1 345.448 119.72 345.728 119.24L346.988 119.98C346.735 120.433 346.408 120.827 346.008 121.16C345.621 121.493 345.161 121.753 344.628 121.94C344.108 122.113 343.521 122.2 342.868 122.2Z" fill="black"/>
<path d="M351.751 107.4V119.46C351.751 119.967 351.844 120.32 352.031 120.52C352.218 120.707 352.518 120.8 352.931 120.8C353.198 120.8 353.418 120.78 353.591 120.74C353.764 120.7 353.998 120.627 354.291 120.52L354.031 121.92C353.818 122.013 353.584 122.08 353.331 122.12C353.078 122.173 352.818 122.2 352.551 122.2C351.738 122.2 351.131 121.98 350.731 121.54C350.344 121.1 350.151 120.427 350.151 119.52V107.4H351.751Z" fill="black"/>
<path d="M357.864 107.4V119.46C357.864 119.967 357.958 120.32 358.144 120.52C358.331 120.707 358.631 120.8 359.044 120.8C359.311 120.8 359.531 120.78 359.704 120.74C359.878 120.7 360.111 120.627 360.404 120.52L360.144 121.92C359.931 122.013 359.698 122.08 359.444 122.12C359.191 122.173 358.931 122.2 358.664 122.2C357.851 122.2 357.244 121.98 356.844 121.54C356.458 121.1 356.264 120.427 356.264 119.52V107.4H357.864Z" fill="black"/>
<path d="M363.258 110.08C362.898 110.08 362.604 109.973 362.378 109.76C362.164 109.533 362.058 109.24 362.058 108.88C362.058 108.52 362.164 108.233 362.378 108.02C362.604 107.793 362.898 107.68 363.258 107.68C363.618 107.68 363.904 107.793 364.118 108.02C364.344 108.233 364.458 108.52 364.458 108.88C364.458 109.24 364.344 109.533 364.118 109.76C363.904 109.973 363.618 110.08 363.258 110.08ZM364.058 112V122H362.458V112H364.058Z" fill="black"/>
<path d="M367.77 122V112H369.17L369.31 114.24L369.05 114.02C369.264 113.487 369.55 113.06 369.91 112.74C370.27 112.407 370.683 112.167 371.15 112.02C371.63 111.873 372.123 111.8 372.63 111.8C373.35 111.8 374.003 111.94 374.59 112.22C375.177 112.487 375.643 112.9 375.99 113.46C376.35 114.02 376.53 114.733 376.53 115.6V122H374.93V116.16C374.93 115.053 374.69 114.287 374.21 113.86C373.743 113.42 373.163 113.2 372.47 113.2C371.99 113.2 371.51 113.313 371.03 113.54C370.55 113.767 370.15 114.133 369.83 114.64C369.524 115.147 369.37 115.827 369.37 116.68V122H367.77Z" fill="black"/>
<path d="M388.573 110.16L388.933 111.58C388.92 111.58 388.9 111.58 388.873 111.58C388.846 111.58 388.82 111.58 388.793 111.58C388.14 111.58 387.633 111.713 387.273 111.98C386.926 112.233 386.753 112.647 386.753 113.22L385.773 112.72C385.773 112.2 385.893 111.747 386.133 111.36C386.373 110.973 386.7 110.68 387.113 110.48C387.526 110.267 387.98 110.16 388.473 110.16C388.486 110.16 388.5 110.16 388.513 110.16C388.54 110.16 388.56 110.16 388.573 110.16ZM385.533 120.72C386.48 120.72 387.22 120.94 387.753 121.38C388.286 121.807 388.553 122.38 388.553 123.1C388.553 123.753 388.333 124.32 387.893 124.8C387.466 125.28 386.886 125.647 386.153 125.9C385.433 126.167 384.62 126.3 383.713 126.3C382.14 126.3 380.96 126.033 380.173 125.5C379.4 124.967 379.013 124.327 379.013 123.58C379.013 123.047 379.186 122.567 379.533 122.14C379.893 121.727 380.493 121.493 381.333 121.44L381.193 121.74C380.74 121.62 380.353 121.42 380.033 121.14C379.726 120.847 379.573 120.427 379.573 119.88C379.573 119.333 379.773 118.867 380.173 118.48C380.586 118.08 381.193 117.833 381.993 117.74L383.053 118.28H382.853C382.2 118.347 381.733 118.513 381.453 118.78C381.186 119.033 381.053 119.313 381.053 119.62C381.053 119.993 381.186 120.273 381.453 120.46C381.733 120.633 382.12 120.72 382.613 120.72H385.533ZM383.693 124.96C384.466 124.96 385.1 124.88 385.593 124.72C386.1 124.56 386.473 124.353 386.713 124.1C386.953 123.847 387.073 123.573 387.073 123.28C387.073 122.92 386.926 122.633 386.633 122.42C386.353 122.207 385.84 122.1 385.093 122.1H382.013C381.586 122.1 381.226 122.207 380.933 122.42C380.64 122.647 380.493 122.953 380.493 123.34C380.493 123.833 380.773 124.227 381.333 124.52C381.906 124.813 382.693 124.96 383.693 124.96ZM383.553 111.8C384.353 111.8 385.06 111.947 385.673 112.24C386.3 112.52 386.786 112.913 387.133 113.42C387.48 113.927 387.653 114.513 387.653 115.18C387.653 115.833 387.48 116.42 387.133 116.94C386.786 117.447 386.3 117.847 385.673 118.14C385.06 118.42 384.353 118.56 383.553 118.56C382.233 118.56 381.22 118.247 380.513 117.62C379.806 116.98 379.453 116.167 379.453 115.18C379.453 114.513 379.626 113.927 379.973 113.42C380.333 112.913 380.82 112.52 381.433 112.24C382.046 111.947 382.753 111.8 383.553 111.8ZM383.553 113.1C382.86 113.1 382.28 113.293 381.813 113.68C381.346 114.053 381.113 114.553 381.113 115.18C381.113 115.793 381.346 116.293 381.813 116.68C382.28 117.067 382.86 117.26 383.553 117.26C384.246 117.26 384.826 117.067 385.293 116.68C385.76 116.293 385.993 115.793 385.993 115.18C385.993 114.553 385.76 114.053 385.293 113.68C384.826 113.293 384.246 113.1 383.553 113.1Z" fill="black"/>
<path d="M40.9098 425.6C42.0698 425.6 43.0698 425.84 43.9098 426.32C44.7498 426.787 45.4498 427.48 46.0098 428.4L44.6698 429.44C44.1764 428.587 43.6164 427.987 42.9898 427.64C42.3764 427.28 41.6298 427.1 40.7498 427.1C40.0431 427.1 39.4564 427.2 38.9898 427.4C38.5364 427.6 38.2031 427.867 37.9898 428.2C37.7764 428.52 37.6698 428.887 37.6698 429.3C37.6698 429.767 37.8164 430.18 38.1098 430.54C38.4031 430.887 38.9898 431.16 39.8698 431.36L42.7298 432C43.9964 432.28 44.8764 432.707 45.3698 433.28C45.8764 433.84 46.1298 434.54 46.1298 435.38C46.1298 436.127 45.9164 436.793 45.4898 437.38C45.0764 437.953 44.4898 438.4 43.7298 438.72C42.9698 439.04 42.0764 439.2 41.0498 439.2C40.0898 439.2 39.2431 439.073 38.5098 438.82C37.7898 438.553 37.1698 438.2 36.6498 437.76C36.1298 437.32 35.7031 436.827 35.3698 436.28L36.7698 435.14C37.0231 435.647 37.3498 436.093 37.7498 436.48C38.1498 436.867 38.6298 437.167 39.1898 437.38C39.7631 437.593 40.4164 437.7 41.1498 437.7C41.8298 437.7 42.4164 437.62 42.9098 437.46C43.4164 437.287 43.8031 437.04 44.0698 436.72C44.3364 436.387 44.4698 435.987 44.4698 435.52C44.4698 435.093 44.3298 434.713 44.0498 434.38C43.7698 434.033 43.2431 433.773 42.4698 433.6L39.3698 432.9C38.5564 432.713 37.8964 432.46 37.3898 432.14C36.8964 431.807 36.5364 431.42 36.3098 430.98C36.0964 430.527 35.9898 430.04 35.9898 429.52C35.9898 428.813 36.1831 428.167 36.5698 427.58C36.9698 426.98 37.5364 426.5 38.2698 426.14C39.0164 425.78 39.8964 425.6 40.9098 425.6Z" fill="black"/>
<path d="M53.3223 428.8C54.2689 428.8 55.1023 429.007 55.8223 429.42C56.5556 429.833 57.1289 430.433 57.5423 431.22C57.9556 431.993 58.1623 432.92 58.1623 434C58.1623 435.08 57.9556 436.013 57.5423 436.8C57.1289 437.573 56.5556 438.167 55.8223 438.58C55.1023 438.993 54.2689 439.2 53.3223 439.2C52.3889 439.2 51.5556 438.993 50.8223 438.58C50.0889 438.167 49.5156 437.573 49.1023 436.8C48.6889 436.013 48.4823 435.08 48.4823 434C48.4823 432.92 48.6889 431.993 49.1023 431.22C49.5156 430.433 50.0889 429.833 50.8223 429.42C51.5556 429.007 52.3889 428.8 53.3223 428.8ZM53.3223 430.18C52.6423 430.18 52.0623 430.333 51.5823 430.64C51.1023 430.947 50.7289 431.387 50.4623 431.96C50.2089 432.52 50.0823 433.2 50.0823 434C50.0823 434.787 50.2089 435.467 50.4623 436.04C50.7289 436.613 51.1023 437.053 51.5823 437.36C52.0623 437.667 52.6423 437.82 53.3223 437.82C54.0023 437.82 54.5823 437.667 55.0623 437.36C55.5423 437.053 55.9089 436.613 56.1623 436.04C56.4289 435.467 56.5623 434.787 56.5623 434C56.5623 433.2 56.4289 432.52 56.1623 431.96C55.9089 431.387 55.5423 430.947 55.0623 430.64C54.5823 430.333 54.0023 430.18 53.3223 430.18Z" fill="black"/>
<path d="M65.0587 424.3C65.4053 424.3 65.732 424.34 66.0387 424.42C66.3453 424.5 66.5853 424.613 66.7587 424.76L66.3387 426.06C66.1787 425.953 66.0053 425.88 65.8187 425.84C65.632 425.787 65.4253 425.76 65.1987 425.76C64.6253 425.76 64.1787 425.9 63.8587 426.18C63.5387 426.447 63.3787 426.88 63.3787 427.48V439H61.7787V427.32C61.7787 426.88 61.8453 426.473 61.9787 426.1C62.112 425.727 62.312 425.407 62.5787 425.14C62.8587 424.873 63.2053 424.667 63.6187 424.52C64.032 424.373 64.512 424.3 65.0587 424.3ZM66.7187 429V430.38H59.7787V429H66.7187Z" fill="black"/>
<path d="M70.2141 426.16V436.24C70.2141 436.733 70.3541 437.1 70.6341 437.34C70.9141 437.58 71.2741 437.7 71.7141 437.7C72.1008 437.7 72.4341 437.633 72.7141 437.5C72.9941 437.367 73.2475 437.187 73.4741 436.96L74.0341 438.3C73.7275 438.58 73.3608 438.8 72.9341 438.96C72.5208 439.12 72.0408 439.2 71.4941 439.2C70.9875 439.2 70.5141 439.113 70.0741 438.94C69.6341 438.753 69.2808 438.467 69.0141 438.08C68.7608 437.68 68.6275 437.16 68.6141 436.52V426.6L70.2141 426.16ZM73.8541 429V430.38H66.6141V429H73.8541Z" fill="black"/>
<path d="M88.773 429H90.553L87.0731 439H85.473L82.653 431.04L79.993 439H78.393L74.913 429H76.693L79.2131 437.14L81.933 429H83.5331L86.253 437.14L88.773 429Z" fill="black"/>
<path d="M98.577 432.54C98.577 431.793 98.377 431.22 97.977 430.82C97.577 430.407 97.0103 430.2 96.277 430.2C95.5836 430.2 94.997 430.353 94.517 430.66C94.037 430.953 93.6836 431.433 93.457 432.1L92.157 431.3C92.4236 430.553 92.917 429.953 93.637 429.5C94.357 429.033 95.2503 428.8 96.317 428.8C97.037 428.8 97.6903 428.927 98.277 429.18C98.8636 429.42 99.3236 429.793 99.657 430.3C100.004 430.793 100.177 431.433 100.177 432.22V437.06C100.177 437.54 100.43 437.78 100.937 437.78C101.19 437.78 101.437 437.747 101.677 437.68L101.597 438.94C101.33 439.073 100.984 439.14 100.557 439.14C100.17 439.14 99.8236 439.067 99.517 438.92C99.2103 438.773 98.9703 438.553 98.797 438.26C98.6236 437.953 98.537 437.573 98.537 437.12V436.92L98.937 436.98C98.777 437.5 98.5036 437.927 98.117 438.26C97.7303 438.58 97.297 438.82 96.817 438.98C96.337 439.127 95.8636 439.2 95.3969 439.2C94.8103 439.2 94.2636 439.1 93.757 438.9C93.2503 438.7 92.8436 438.4 92.537 438C92.2436 437.587 92.097 437.08 92.097 436.48C92.097 435.733 92.3436 435.12 92.837 434.64C93.3436 434.147 94.0436 433.813 94.937 433.64L98.897 432.86V434.18L95.677 434.84C95.0236 434.973 94.537 435.16 94.217 435.4C93.897 435.64 93.737 435.973 93.737 436.4C93.737 436.813 93.897 437.153 94.217 437.42C94.5503 437.673 95.017 437.8 95.617 437.8C96.0036 437.8 96.3703 437.753 96.717 437.66C97.077 437.553 97.397 437.4 97.677 437.2C97.957 436.987 98.177 436.727 98.337 436.42C98.497 436.1 98.577 435.727 98.577 435.3V432.54Z" fill="black"/>
<path d="M104.065 439V429H105.365L105.585 430.64C105.865 430.027 106.272 429.567 106.805 429.26C107.352 428.953 108.012 428.8 108.785 428.8C108.958 428.8 109.145 428.813 109.345 428.84C109.558 428.867 109.738 428.92 109.885 429L109.605 430.46C109.458 430.407 109.298 430.367 109.125 430.34C108.952 430.313 108.705 430.3 108.385 430.3C107.972 430.3 107.552 430.42 107.125 430.66C106.712 430.9 106.365 431.267 106.085 431.76C105.805 432.24 105.665 432.853 105.665 433.6V439H104.065Z" fill="black"/>
<path d="M116.097 439.2C115.15 439.2 114.303 438.993 113.557 438.58C112.823 438.167 112.25 437.573 111.837 436.8C111.423 436.013 111.217 435.08 111.217 434C111.217 432.92 111.423 431.993 111.837 431.22C112.25 430.433 112.817 429.833 113.537 429.42C114.257 429.007 115.077 428.8 115.997 428.8C116.93 428.8 117.723 429 118.377 429.4C119.043 429.8 119.55 430.347 119.897 431.04C120.243 431.72 120.417 432.487 120.417 433.34C120.417 433.567 120.41 433.773 120.397 433.96C120.383 434.147 120.363 434.313 120.337 434.46H112.257V433.04H119.637L118.817 433.2C118.817 432.24 118.55 431.5 118.017 430.98C117.497 430.46 116.81 430.2 115.957 430.2C115.303 430.2 114.737 430.353 114.257 430.66C113.79 430.953 113.423 431.387 113.157 431.96C112.903 432.52 112.777 433.2 112.777 434C112.777 434.787 112.91 435.467 113.177 436.04C113.443 436.613 113.817 437.053 114.297 437.36C114.79 437.653 115.377 437.8 116.057 437.8C116.79 437.8 117.383 437.66 117.837 437.38C118.303 437.1 118.677 436.72 118.957 436.24L120.217 436.98C119.963 437.433 119.637 437.827 119.237 438.16C118.85 438.493 118.39 438.753 117.857 438.94C117.337 439.113 116.75 439.2 116.097 439.2Z" fill="black"/>
<path d="M134.836 425.8C136.903 425.8 138.523 426.373 139.696 427.52C140.883 428.653 141.476 430.28 141.476 432.4C141.476 434.52 140.883 436.153 139.696 437.3C138.523 438.433 136.903 439 134.836 439H130.576V425.8H134.836ZM134.996 437.5C136.503 437.5 137.676 437.053 138.516 436.16C139.369 435.253 139.796 434 139.796 432.4C139.796 430.8 139.369 429.553 138.516 428.66C137.676 427.753 136.503 427.3 134.996 427.3H132.176V437.5H134.996Z" fill="black"/>
<path d="M148.87 439.2C147.923 439.2 147.077 438.993 146.33 438.58C145.597 438.167 145.023 437.573 144.61 436.8C144.197 436.013 143.99 435.08 143.99 434C143.99 432.92 144.197 431.993 144.61 431.22C145.023 430.433 145.59 429.833 146.31 429.42C147.03 429.007 147.85 428.8 148.77 428.8C149.703 428.8 150.497 429 151.15 429.4C151.817 429.8 152.323 430.347 152.67 431.04C153.017 431.72 153.19 432.487 153.19 433.34C153.19 433.567 153.183 433.773 153.17 433.96C153.157 434.147 153.137 434.313 153.11 434.46H145.03V433.04H152.41L151.59 433.2C151.59 432.24 151.323 431.5 150.79 430.98C150.27 430.46 149.583 430.2 148.73 430.2C148.077 430.2 147.51 430.353 147.03 430.66C146.563 430.953 146.197 431.387 145.93 431.96C145.677 432.52 145.55 433.2 145.55 434C145.55 434.787 145.683 435.467 145.95 436.04C146.217 436.613 146.59 437.053 147.07 437.36C147.563 437.653 148.15 437.8 148.83 437.8C149.563 437.8 150.157 437.66 150.61 437.38C151.077 437.1 151.45 436.72 151.73 436.24L152.99 436.98C152.737 437.433 152.41 437.827 152.01 438.16C151.623 438.493 151.163 438.753 150.63 438.94C150.11 439.113 149.523 439.2 148.87 439.2Z" fill="black"/>
<path d="M162.58 429H164.26L160.1 439H158.5L154.34 429H156.16L159.32 437.38L162.58 429Z" fill="black"/>
</svg>
